PathFileType	4	(X/Y/Z)	/Users/niels/Desktop/University/Third Semester/Perception and Action/Exam/Gymnastics Motion Tracking/Code for Gym Tracking/Analyzed Data/Webcam_Backflip/id5_5_trajectory_Sports2D/id5_5_trajectory_Sports2D_px_person00.trc
DataRate	CameraRate	NumFrames	NumMarkers	Units	OrigDataRate	OrigDataStartFrame	OrigNumFrames
29.81132075471698	29.81132075471698	9	22	m	29.81132075471698	19	159
Frame#	Time	Hip			RHip			RKnee			RAnkle			RBigToe			RSmallToe			RHeel			LHip			LKnee			LAnkle			LBigToe			LSmallToe			LHeel			Neck			Head			Nose			RShoulder			RElbow			RWrist			LShoulder			LElbow			LWrist		
		X1	Y1	Z1	X2	Y2	Z2	X3	Y3	Z3	X4	Y4	Z4	X5	Y5	Z5	X6	Y6	Z6	X7	Y7	Z7	X8	Y8	Z8	X9	Y9	Z9	X10	Y10	Z10	X11	Y11	Z11	X12	Y12	Z12	X13	Y13	Z13	X14	Y14	Z14	X15	Y15	Z15	X16	Y16	Z16	X17	Y17	Z17	X18	Y18	Z18	X19	Y19	Z19	X20	Y20	Z20	X21	Y21	Z21	X22	Y22	Z22
19	0.6373417721518987	0.9456448510455303	-0.661088290505784	0.0	0.9433318449617756	-0.6626826336035464	0.0	0.9960868456945251	-0.7561502462325626	0.0	0.9607815573177974	-0.8500351203400567	0.0	0.9944090171042944	-0.872351636125146	0.0	0.9867379372230963	-0.8744324436010178	0.0	0.9496780475963296	-0.8605461440440014	0.0	0.9491493922896355	-0.6613356236685479	0.0	0.9927884984398371	-0.7542438795612953	0.0	0.9611906896956385	-0.8446569470356158	0.0	0.9967593554244155	-0.8728473917431882	0.0	0.9814259277941018	-0.8722221774434076	0.0	0.9434148277432021	-0.851715888809151	0.0	0.9559957257072265	-0.5166195951620892	0.0	0.9641529751205189	-0.4496840750747926	0.0	0.9802411448244693	-0.48279762064014553	0.0	0.9596495002382244	-0.5247556878374542	0.0	1.0124588947816329	-0.5209556571481484	0.0	1.0463568737852371	-0.48904123542066175	0.0	0.9487217641613691	-0.5260910409267442	0.0	0.9962925079263165	-0.5313723808524737	0.0	1.0284457453230949	-0.509586319800906	0.0
20	0.6708860759493671	0.9494997657144637	-0.6542952026479182	0.0	0.947355334492361	-0.6560401621343641	0.0	0.9901345541314673	-0.756065446153387	0.0	0.9597938990568616	-0.8518965115980082	0.0	0.9894912822345625	-0.8725362340314636	0.0	0.9816590207595454	-0.8749162554594294	0.0	0.9491259092125715	-0.8631910222301578	0.0	0.9520708526697835	-0.654642810169237	0.0	0.986720071231226	-0.7540650367698855	0.0	0.9599917642648006	-0.8467908714937473	0.0	0.9914527825670454	-0.8733323466924758	0.0	0.9793112489854086	-0.8736513363929478	0.0	0.9425860965356114	-0.8540841658986014	0.0	0.9471860984382952	-0.5099811285815948	0.0	0.9468025409760125	-0.4431132997390263	0.0	0.9649557215424907	-0.47421029023966704	0.0	0.9522724112239571	-0.5146198594506821	0.0	1.0001190847132617	-0.4874281504952829	0.0	1.0222174331562226	-0.4399802326725633	0.0	0.9398662541769874	-0.5176720299295543	0.0	0.9821634460339592	-0.5072899096311313	0.0	1.0006112412677373	-0.4729650429735807	0.0
21	0.7044303797468354	0.953546512136482	-0.6375164473070453	0.0	0.9518150628066587	-0.6392640062010172	0.0	0.9857844491598763	-0.744697637724342	0.0	0.9594411497823299	-0.8437589435816937	0.0	0.9844972021765085	-0.863884545896308	0.0	0.9765213550081967	-0.866495165199963	0.0	0.9493879667231829	-0.8562503865065957	0.0	0.9548077195807516	-0.6378429478384692	0.0	0.9823021412735193	-0.7425934376068368	0.0	0.9594283194734068	-0.8391586478944606	0.0	0.9861656943788111	-0.8631590046276849	0.0	0.9777230679157264	-0.8643946905937943	0.0	0.9430060175657943	-0.8471961420590217	0.0	0.9369725668932664	-0.49542762047785327	0.0	0.9261423614553913	-0.4289453292184266	0.0	0.9472007610646732	-0.4574196966272092	0.0	0.9425545363069041	-0.49709960843363127	0.0	0.9785758293997995	-0.4510565734756247	0.0	0.9879509203982355	-0.3938281877001057	0.0	0.930219934169901	-0.5011794529355055	0.0	0.9621524983583697	-0.4773181720705997	0.0	0.9660774138253069	-0.4340542242615545	0.0
22	0.7379746835443037	0.9568738714650812	-0.6117580880976276	0.0	0.955659206626794	-0.6134692967609922	0.0	0.9850289714703845	-0.7218582611331518	0.0	0.9608767485251024	-0.8251380658309595	0.0	0.9815832069710969	-0.8472397526966217	0.0	0.9736068083709996	-0.8496497203825298	0.0	0.9513765047210759	-0.8390273708972641	0.0	0.9567923981246733	-0.6120948104010022	0.0	0.9813501872320484	-0.719642942691811	0.0	0.9606683345075689	-0.8210610574118674	0.0	0.9832126738012621	-0.8437536319991338	0.0	0.9774642027810736	-0.8458883153779742	0.0	0.9455716504763831	-0.8301691507757866	0.0	0.924789954656746	-0.4743055400536941	0.0	0.9024087698247423	-0.4087145303716338	0.0	0.927445849596225	-0.43400863012795166	0.0	0.9295692845799194	-0.47417071371042535	0.0	0.950685838599	-0.41668237211494497	0.0	0.949916475529384	-0.35467056516049905	0.0	0.9194175478358312	-0.47807491247541417	0.0	0.9404709757794384	-0.44360351001578396	0.0	0.9334031104056849	-0.3942380233071661	0.0
23	0.7715189873417722	0.9583959443616235	-0.5794076649696012	0.0	0.9577280711562465	-0.5810862334898039	0.0	0.9894787279674326	-0.6882228148261327	0.0	0.9652762288730887	-0.7961451552547403	0.0	0.9827766334194057	-0.8227090694727767	0.0	0.9749559387799949	-0.8244034197944238	0.0	0.9559678220862775	-0.8112789135280567	0.0	0.9572475285593518	-0.5798143010921569	0.0	0.9853014659256214	-0.6858801641466327	0.0	0.9649813061061855	-0.7924187407084275	0.0	0.9848881159893501	-0.8163635843313785	0.0	0.9801311066314387	-0.8193005230759142	0.0	0.9510341444442926	-0.8028632455665906	0.0	0.9104390611905822	-0.44880824144252973	0.0	0.8766688694796899	-0.3849784054100749	0.0	0.9064947918355071	-0.40658254347031275	0.0	0.913215399354055	-0.4481874485780288	0.0	0.9206315817951761	-0.38810250064008095	0.0	0.9142641251919141	-0.32486579656736914	0.0	0.9069657137228537	-0.45087485040685776	0.0	0.919741781829201	-0.4106253528161597	0.0	0.9079220750681822	-0.3583721602009601	0.0
24	0.8050632911392405	0.9573157782585912	-0.5438189606632894	0.0	0.9571743976742222	-0.5454778761288857	0.0	0.9992431676943686	-0.6450050452840838	0.0	0.9734512129593612	-0.7572070072365016	0.0	0.989428207347057	-0.7893004299761022	0.0	0.9819151971988432	-0.7900751508787877	0.0	0.963859247197546	-0.7730290241474657	0.0	0.9555684463691196	-0.5443285236496364	0.0	0.9942591973427216	-0.6425499772499126	0.0	0.9732238063468202	-0.7536086545227161	0.0	0.9925991933573507	-0.7808360593673683	0.0	0.9873350831285278	-0.7843519270119365	0.0	0.9598343400434138	-0.7656217187890161	0.0	0.8943035112163069	-0.4216018432761016	0.0	0.8504147580084955	-0.3607336233811097	0.0	0.8850312767236094	-0.3782520892743798	0.0	0.8944135162326697	-0.4214065976306391	0.0	0.8931704776214047	-0.3674159960046113	0.0	0.8862555259196669	-0.3050324756591862	0.0	0.8928170933255212	-0.4226480296897045	0.0	0.9017113334184472	-0.3832205665137701	0.0	0.8917296545305936	-0.33199495960678166	0.0
25	0.8386075949367088	0.9535569921304855	-0.5087093705332564	0.0	0.9539140080767239	-0.5103092008413822	0.0	1.0122034618657851	-0.5938274667391533	0.0	0.9856121594754631	-0.7090565488111549	0.0	1.0021254809311027	-0.7453950173264151	0.0	0.9951110987669434	-0.7455625946238728	0.0	0.9755762864975137	-0.7248589898372231	0.0	0.951670611796537	-0.5093380645170129	0.0	1.0062930953785252	-0.5914458998081019	0.0	0.9854880444672519	-0.7053999823493763	0.0	1.0065236406366946	-0.7360113116184643	0.0	1.0000160397643458	-0.7397104289821566	0.0	0.9721625185684561	-0.7191510105801965	0.0	0.8772959125551584	-0.3953988678715987	0.0	0.8251917311224313	-0.3388917589991326	0.0	0.8637032426226936	-0.35202431869728973	0.0	0.8748417825422987	-0.3958493000383322	0.0	0.8725442503918476	-0.3547425845075907	0.0	0.8696855388104002	-0.29401469491915083	0.0	0.8775533123984293	-0.3963895870461574	0.0	0.8880702664997733	-0.363862235814726	0.0	0.885189810587927	-0.3171313997285667	0.0
26	0.8721518987341772	0.9479276132520489	-0.4773521251643072	0.0	0.9488299174371788	-0.4787204868610026	0.0	1.0242963600767143	-0.5368997179984454	0.0	1.001237232713507	-0.6530176776809459	0.0	1.0205696986508854	-0.6896948078017332	0.0	1.0143644819134807	-0.6900619552285943	0.0	0.9913557290350202	-0.668422130446543	0.0	0.9461293488665689	-0.4780473446331315	0.0	1.0175548121085534	-0.5350984839412398	0.0	1.0009860181750037	-0.6491062294642383	0.0	1.0254685656187963	-0.6806170715429285	0.0	1.0178956576761014	-0.6840132727098357	0.0	0.9879761626325857	-0.6647222195908374	0.0	0.8605581029740279	-0.37260050355377655	0.0	0.8023621488972652	-0.32183307812683526	0.0	0.8434044092789046	-0.33028276776923277	0.0	0.8564765670776119	-0.37327075958065903	0.0	0.861270183952163	-0.34828665156261435	0.0	0.8660104222680907	-0.28917113150621254	0.0	0.8621751854165394	-0.37455576536451685	0.0	0.8796950707022944	-0.3522790317259579	0.0	0.8870621225257465	-0.31163916050471796	0.0
27	0.9056962025316455	0.9419005204270713	-0.4515944043754819	0.0	0.9435152124754649	-0.4524689151855058	0.0	1.0308147148126008	-0.4772472823253048	0.0	1.0188352673472187	-0.5910128638134914	0.0	1.0428786407931556	-0.6220718268268942	0.0	1.0379373615894232	-0.6237341433797645	0.0	1.0105040765009707	-0.6061891949362136	0.0	0.9400494426048106	-0.4521848759194512	0.0	1.02341462551845	-0.4768742805958314	0.0	1.0179688347483937	-0.5865908482702594	0.0	1.0466736833313528	-0.6141115598739749	0.0	1.0389350669636743	-0.6169118926399014	0.0	1.006585914194391	-0.6040762906036543	0.0	0.8451817187047598	-0.35507762293808365	0.0	0.7829282130438812	-0.3112543615483434	0.0	0.8251069359100878	-0.31464791278296234	0.0	0.8411385367309968	-0.35514371800451255	0.0	0.8593577872073587	-0.3449180826010646	0.0	0.8736010337880646	-0.28716371204047464	0.0	0.8478415586081268	-0.3587827098148164	0.0	0.8759722404613287	-0.34638195372778835	0.0	0.8943951469215743	-0.31098818161589237	0.0
